<svg viewBox="0 0 92.72 95.37" xmlns="http://www.w3.org/2000/svg"><g fill="#444"><path d="m17.65 37.77v-8.4l-4.12 6.92h-1.48l-4.05-6.74v8.22h-3v-14h2.59l5.24 8.7 5.17-8.7h2.66v14z"/><path d="m24 23.77h3.24v14h-3.24z"/><path d="m30.57 23.77h3.24v11.36h7v2.64h-10.24z"/><path d="m52 34.77h-6.5l-1.24 3h-3.33l6.24-14h3.2l6.26 14h-3.4zm-1-2.46-2.25-5.31-2.22 5.36z"/><path d="m70.93 23.77v14h-2.66l-7-8.5v8.5h-3.2v-14h2.68l7 8.5v-8.5z"/><path d="m77.1 37.07a6.91 6.91 0 0 1 -2.74-2.59 7.45 7.45 0 0 1 0-7.42 7 7 0 0 1 2.74-2.59 8.66 8.66 0 0 1 7.85 0 7.11 7.11 0 0 1 2.74 2.59 7.14 7.14 0 0 1 -2.74 10 8.66 8.66 0 0 1 -7.85 0zm6.17-2.39a4.07 4.07 0 0 0 1.57-1.59 5 5 0 0 0 0-4.64 4.07 4.07 0 0 0 -1.57-1.59 4.69 4.69 0 0 0 -4.48 0 4.07 4.07 0 0 0 -1.57 1.59 5 5 0 0 0 0 4.64 4.07 4.07 0 0 0 1.57 1.59 4.69 4.69 0 0 0 4.48 0z"/><path d="m3.24 46.37v3.7h6.48v2.6h-6.48v5.1h-3.24v-14h10.58v2.6z"/><path d="m21.42 54.77h-6.5l-1.24 3h-3.32l6.24-14h3.2l6.26 14h-3.4zm-1-2.46-2.24-5.31-2.18 5.31z"/><path d="m28.91 57.56a7.59 7.59 0 0 1 -2.49-1.17l1.1-2.39a7.26 7.26 0 0 0 2.14 1 7.94 7.94 0 0 0 2.48.4 3.89 3.89 0 0 0 2-.41 1.23 1.23 0 0 0 .66-1.09 1 1 0 0 0 -.39-.83 3 3 0 0 0 -1-.53c-.41-.13-1-.28-1.65-.44a22.61 22.61 0 0 1 -2.62-.76 4.25 4.25 0 0 1 -1.75-1.22 3.27 3.27 0 0 1 -.73-2.24 3.9 3.9 0 0 1 .66-2.21 4.44 4.44 0 0 1 2-1.57 8.25 8.25 0 0 1 3.25-.58 10.93 10.93 0 0 1 2.62.32 8 8 0 0 1 2.24.92l-1 2.46a7.84 7.84 0 0 0 -3.88-1.1 3.65 3.65 0 0 0 -2 .44 1.36 1.36 0 0 0 -.65 1.16 1.13 1.13 0 0 0 .75 1.07 10.84 10.84 0 0 0 2.29.69 24.79 24.79 0 0 1 2.62.76 4.5 4.5 0 0 1 1.75 1.2 3.21 3.21 0 0 1 .73 2.22 3.8 3.8 0 0 1 -.67 2.19 4.49 4.49 0 0 1 -2 1.57 8.12 8.12 0 0 1 -3.26.58 11.42 11.42 0 0 1 -3.2-.44z"/><path d="m53.12 43.77v14h-3.24v-5.77h-6.36v5.74h-3.24v-14h3.24v5.52h6.36v-5.49z"/><path d="m56.44 43.77h3.24v14h-3.24z"/><path d="m65.85 57.07a6.91 6.91 0 0 1 -2.74-2.59 7.45 7.45 0 0 1 0-7.42 7 7 0 0 1 2.74-2.59 8.66 8.66 0 0 1 7.85 0 7.11 7.11 0 0 1 2.74 2.59 7.14 7.14 0 0 1 -2.74 10 8.66 8.66 0 0 1 -7.85 0zm6.15-2.39a4.07 4.07 0 0 0 1.57-1.59 5 5 0 0 0 0-4.64 4.07 4.07 0 0 0 -1.57-1.59 4.69 4.69 0 0 0 -4.48 0 4.07 4.07 0 0 0 -1.52 1.59 5 5 0 0 0 0 4.64 4.07 4.07 0 0 0 1.57 1.59 4.69 4.69 0 0 0 4.48 0z"/><path d="m92.72 43.77v14h-2.66l-7-8.5v8.5h-3.2v-14h2.68l7 8.5v-8.5z"/><text font-family="Montserrat-Bold, Montserrat" font-size="6" font-weight="700" letter-spacing=".08em" transform="translate(26.68 78.81)">IT GOES ON</text><path d="m71.72 82.15h-49.06v-11.25h49.06zm-48.06-1h47.06v-9.25h-47.06z"/><path d="m47.19 95.37-4.42-4.37 4.42-4.42 4.42 4.42zm-3-4.42 3 3 3-3-3-3z"/><path d="m47.06 8.84-4.43-4.42 4.43-4.42 4.42 4.42zm-3-4.42 3 3 3-3-3-3z"/><path d="m12.97 19.4-4.51-4.47.71-.71 3.8 3.77 3.78-3.74.71.71z"/><path d="m20.56 19.43-4.52-4.48.72-.7 3.8 3.76 3.78-3.74.71.71z"/><path d="m28.16 19.44-4.52-4.47.71-.71 3.81 3.77 3.77-3.74.72.7z"/><path d="m35.74 19.46-4.51-4.47.71-.71 3.8 3.77 3.78-3.74.72.71z"/><path d="m43.33 19.48-4.52-4.47.71-.7 3.81 3.76 3.77-3.74.72.71z"/><path d="m50.9 19.51-4.52-4.48.72-.7 3.8 3.76 3.78-3.74.71.71z"/><path d="m58.49 19.53-4.51-4.47.71-.71 3.8 3.76 3.78-3.74.71.71z"/><path d="m66.07 19.55-4.52-4.47.71-.71 3.81 3.77 3.77-3.75.72.71z"/><path d="m73.58 19.57-4.52-4.47.72-.71 3.8 3.77 3.78-3.74.71.7z"/><path d="m81.17 19.59-4.52-4.47.71-.71 3.81 3.77 3.77-3.74.72.7z"/><path d="m46.69 65.58h1v5.82h-1z"/><path d="m46.56 8.18h1v6.85h-1z"/><path d="m46.69 81.65h1v5.82h-1z"/><path d="m9.26 65.08h75.86v1h-75.86z"/></g></svg>